<?xml version="1.0" encoding="UTF-8"?>
<svg xmlns="http://www.w3.org/2000/svg" xmlns:xlink="http://www.w3.org/1999/xlink" width="120px" height="40px" viewBox="0 0 40 40" version="1.1">
<g id="surface1">
<path style=" stroke:none;fill-rule:nonzero;fill:rgb(95.294118%,95.686275%,86.274511%);fill-opacity:1;" d="M 39.949219 19.972656 C 39.949219 8.941406 31.003906 0 19.972656 0 C 8.941406 0 0 8.941406 0 19.972656 C 0 31.007812 8.941406 39.949219 19.972656 39.949219 C 31.003906 39.949219 39.949219 31.007812 39.949219 19.972656 Z M 39.949219 19.972656 "/>
<path style=" stroke:none;fill-rule:nonzero;fill:rgb(88.627452%,88.627452%,78.039217%);fill-opacity:1;" d="M 24.660156 30.949219 C 24.660156 32.910156 23.066406 34.503906 21.101562 34.503906 C 19.140625 34.503906 17.546875 32.914062 17.546875 30.949219 C 17.546875 28.984375 19.140625 27.390625 21.101562 27.390625 C 23.066406 27.390625 24.660156 28.984375 24.660156 30.949219 Z M 24.660156 30.949219 "/>
<path style=" stroke:none;fill-rule:nonzero;fill:rgb(88.627452%,88.627452%,78.039217%);fill-opacity:1;" d="M 15.175781 23.777344 C 15.175781 22.683594 14.292969 21.800781 13.199219 21.800781 C 12.109375 21.800781 11.226562 22.683594 11.226562 23.777344 C 11.226562 24.867188 12.109375 25.75 13.199219 25.75 C 14.292969 25.75 15.175781 24.867188 15.175781 23.777344 Z M 15.175781 23.777344 "/>
<path style=" stroke:none;fill-rule:nonzero;fill:rgb(88.627452%,88.627452%,78.039217%);fill-opacity:1;" d="M 15.175781 30.308594 C 15.175781 31.214844 14.441406 31.953125 13.535156 31.953125 C 12.628906 31.953125 11.894531 31.214844 11.894531 30.308594 C 11.894531 29.402344 12.628906 28.667969 13.535156 28.667969 C 14.441406 28.667969 15.175781 29.402344 15.175781 30.308594 Z M 15.175781 30.308594 "/>
<path style=" stroke:none;fill-rule:nonzero;fill:rgb(88.627452%,88.627452%,78.039217%);fill-opacity:1;" d="M 28.851562 9.671875 C 28.851562 11.605469 27.289062 13.167969 25.359375 13.167969 C 23.425781 13.167969 21.863281 11.605469 21.863281 9.671875 C 21.863281 7.742188 23.425781 6.179688 25.359375 6.179688 C 27.289062 6.179688 28.851562 7.742188 28.851562 9.671875 Z M 28.851562 9.671875 "/>
<path style=" stroke:none;fill-rule:nonzero;fill:rgb(88.627452%,88.627452%,78.039217%);fill-opacity:1;" d="M 34.324219 13.351562 C 34.324219 14.359375 33.507812 15.175781 32.5 15.175781 C 31.492188 15.175781 30.675781 14.359375 30.675781 13.351562 C 30.675781 12.34375 31.492188 11.527344 32.5 11.527344 C 33.507812 11.527344 34.324219 12.34375 34.324219 13.351562 Z M 34.324219 13.351562 "/>
<path style=" stroke:none;fill-rule:nonzero;fill:rgb(88.627452%,88.627452%,78.039217%);fill-opacity:1;" d="M 22.652344 4.140625 C 22.652344 5.097656 21.878906 5.875 20.921875 5.875 C 19.964844 5.875 19.1875 5.097656 19.1875 4.140625 C 19.1875 3.183594 19.964844 2.410156 20.921875 2.410156 C 21.878906 2.410156 22.652344 3.183594 22.652344 4.140625 Z M 22.652344 4.140625 "/>
<path style=" stroke:none;fill-rule:nonzero;fill:rgb(34.509805%,34.901962%,35.686275%);fill-opacity:1;" d="M 19.972656 39.949219 C 28.785156 37.871094 35.34375 29.421875 35.34375 19.972656 C 35.34375 10.527344 28.785156 2.078125 19.972656 0 C 8.941406 0 0 8.941406 0 19.972656 C 0 31.007812 8.941406 39.949219 19.972656 39.949219 Z M 19.972656 39.949219 "/>
<path style=" stroke:none;fill-rule:nonzero;fill:rgb(0%,0%,0%);fill-opacity:1;" d="M 18.464844 39.859375 C 18.28125 39.84375 17.660156 39.769531 17.085938 39.6875 C 12.871094 39.089844 8.992188 37.140625 5.914062 34.070312 C 2.648438 30.816406 0.667969 26.683594 0.148438 22.042969 C 0.0429688 21.125 0.046875 18.785156 0.148438 17.835938 C 1.128906 8.945312 7.957031 1.738281 16.757812 0.304688 C 17.265625 0.222656 18.167969 0.125 18.757812 0.0820312 C 19.726562 0.0195312 19.890625 0.0273438 20.398438 0.15625 C 22.359375 0.660156 24.25 1.519531 26.058594 2.722656 C 27.320312 3.566406 28.089844 4.195312 29.148438 5.253906 C 32.371094 8.476562 34.402344 12.53125 35.117188 17.179688 C 35.316406 18.46875 35.296875 21.613281 35.082031 22.972656 C 34.5 26.664062 32.984375 30.121094 30.703125 32.988281 C 30.046875 33.804688 28.28125 35.574219 27.472656 36.214844 C 25.425781 37.835938 23.136719 39.019531 20.671875 39.722656 C 20.023438 39.90625 19.519531 39.9375 18.464844 39.859375 Z M 18.464844 39.859375 "/>
</g>
</svg>
