<?xml version="1.0" encoding="UTF-8"?>
<svg xmlns="http://www.w3.org/2000/svg" xmlns:xlink="http://www.w3.org/1999/xlink" width="120px" height="40px" viewBox="0 0 40 40" version="1.1">
<g id="surface1">
<path style=" stroke:none;fill-rule:nonzero;fill:rgb(95.294118%,95.686275%,86.274511%);fill-opacity:1;" d="M 39.949219 19.972656 C 39.949219 8.941406 31.007812 0 19.972656 0 C 8.941406 0 0 8.941406 0 19.972656 C 0 31.007812 8.941406 39.949219 19.972656 39.949219 C 31.007812 39.949219 39.949219 31.007812 39.949219 19.972656 Z M 39.949219 19.972656 "/>
<path style=" stroke:none;fill-rule:nonzero;fill:rgb(88.627452%,88.627452%,78.039217%);fill-opacity:1;" d="M 24.660156 30.949219 C 24.660156 32.914062 23.066406 34.503906 21.101562 34.503906 C 19.140625 34.503906 17.546875 32.914062 17.546875 30.949219 C 17.546875 28.984375 19.140625 27.390625 21.101562 27.390625 C 23.066406 27.390625 24.660156 28.984375 24.660156 30.949219 Z M 24.660156 30.949219 "/>
<path style=" stroke:none;fill-rule:nonzero;fill:rgb(88.627452%,88.627452%,78.039217%);fill-opacity:1;" d="M 15.175781 23.777344 C 15.175781 24.867188 14.292969 25.75 13.203125 25.75 C 12.109375 25.75 11.226562 24.867188 11.226562 23.777344 C 11.226562 22.683594 12.109375 21.800781 13.203125 21.800781 C 14.292969 21.800781 15.175781 22.683594 15.175781 23.777344 Z M 15.175781 23.777344 "/>
<path style=" stroke:none;fill-rule:nonzero;fill:rgb(88.627452%,88.627452%,78.039217%);fill-opacity:1;" d="M 15.175781 30.308594 C 15.175781 31.214844 14.441406 31.953125 13.535156 31.953125 C 12.628906 31.953125 11.894531 31.214844 11.894531 30.308594 C 11.894531 29.402344 12.628906 28.667969 13.535156 28.667969 C 14.441406 28.667969 15.175781 29.402344 15.175781 30.308594 Z M 15.175781 30.308594 "/>
<path style=" stroke:none;fill-rule:nonzero;fill:rgb(88.627452%,88.627452%,78.039217%);fill-opacity:1;" d="M 28.855469 9.671875 C 28.855469 11.605469 27.289062 13.167969 25.359375 13.167969 C 23.429688 13.167969 21.863281 11.605469 21.863281 9.671875 C 21.863281 7.742188 23.429688 6.179688 25.359375 6.179688 C 27.289062 6.179688 28.855469 7.742188 28.855469 9.671875 Z M 28.855469 9.671875 "/>
<path style=" stroke:none;fill-rule:nonzero;fill:rgb(88.627452%,88.627452%,78.039217%);fill-opacity:1;" d="M 34.324219 13.351562 C 34.324219 14.359375 33.507812 15.175781 32.5 15.175781 C 31.492188 15.175781 30.675781 14.359375 30.675781 13.351562 C 30.675781 12.34375 31.492188 11.527344 32.5 11.527344 C 33.507812 11.527344 34.324219 12.34375 34.324219 13.351562 Z M 34.324219 13.351562 "/>
<path style=" stroke:none;fill-rule:nonzero;fill:rgb(88.627452%,88.627452%,78.039217%);fill-opacity:1;" d="M 22.652344 4.140625 C 22.652344 5.097656 21.878906 5.875 20.921875 5.875 C 19.964844 5.875 19.1875 5.097656 19.1875 4.140625 C 19.1875 3.183594 19.964844 2.410156 20.921875 2.410156 C 21.878906 2.410156 22.652344 3.183594 22.652344 4.140625 Z M 22.652344 4.140625 "/>
<path style=" stroke:none;fill-rule:nonzero;fill:rgb(34.509805%,34.901962%,35.686275%);fill-opacity:1;" d="M 19.972656 0 C 8.941406 0 0 8.941406 0 19.972656 C 0 31.003906 8.941406 39.949219 19.972656 39.949219 "/>
<path style=" stroke:none;fill-rule:nonzero;fill:rgb(0%,0%,0%);fill-opacity:1;" d="M 18.015625 39.765625 C 10.371094 39.039062 3.558594 33.613281 1.152344 26.339844 C 0.902344 25.585938 0.589844 24.46875 0.457031 23.855469 C 0.132812 22.328125 0.0195312 19.175781 0.234375 17.527344 C 1.175781 10.273438 6.03125 4.078125 12.890625 1.375 C 14.5 0.742188 18.085938 0.03125 19.671875 0.03125 C 19.875 0.03125 19.898438 2.121094 19.898438 19.984375 C 19.898438 38.894531 19.886719 39.9375 19.640625 39.917969 C 19.496094 39.90625 18.765625 39.839844 18.015625 39.765625 Z M 18.015625 39.765625 "/>
</g>
</svg>
