<?xml version="1.0" encoding="UTF-8"?>
<svg xmlns="http://www.w3.org/2000/svg" xmlns:xlink="http://www.w3.org/1999/xlink" width="120px" height="40px" viewBox="0 0 40 40" version="1.1">
<g id="surface1">
<path style=" stroke:none;fill-rule:nonzero;fill:rgb(95.294118%,95.686275%,86.274511%);fill-opacity:1;" d="M 39.9375 19.269531 C 39.546875 8.246094 30.292969 -0.375 19.265625 0.015625 C 8.242188 0.40625 -0.378906 9.664062 0.0117188 20.6875 C 0.402344 31.710938 9.660156 40.332031 20.683594 39.941406 C 31.710938 39.550781 40.328125 30.292969 39.9375 19.269531 Z M 39.9375 19.269531 "/>
<path style=" stroke:none;fill-rule:nonzero;fill:rgb(88.627452%,88.627452%,78.039217%);fill-opacity:1;" d="M 24.65625 30.949219 C 24.65625 32.910156 23.0625 34.503906 21.097656 34.503906 C 19.132812 34.503906 17.542969 32.910156 17.542969 30.949219 C 17.542969 28.984375 19.132812 27.390625 21.097656 27.390625 C 23.0625 27.390625 24.65625 28.984375 24.65625 30.949219 Z M 24.65625 30.949219 "/>
<path style=" stroke:none;fill-rule:nonzero;fill:rgb(88.627452%,88.627452%,78.039217%);fill-opacity:1;" d="M 15.171875 23.773438 C 15.171875 24.867188 14.289062 25.75 13.195312 25.75 C 12.105469 25.75 11.222656 24.867188 11.222656 23.773438 C 11.222656 22.683594 12.105469 21.800781 13.195312 21.800781 C 14.289062 21.800781 15.171875 22.683594 15.171875 23.773438 Z M 15.171875 23.773438 "/>
<path style=" stroke:none;fill-rule:nonzero;fill:rgb(88.627452%,88.627452%,78.039217%);fill-opacity:1;" d="M 15.171875 30.308594 C 15.171875 29.402344 14.4375 28.667969 13.53125 28.667969 C 12.625 28.667969 11.890625 29.402344 11.890625 30.308594 C 11.890625 31.214844 12.625 31.949219 13.53125 31.949219 C 14.4375 31.949219 15.171875 31.214844 15.171875 30.308594 Z M 15.171875 30.308594 "/>
<path style=" stroke:none;fill-rule:nonzero;fill:rgb(88.627452%,88.627452%,78.039217%);fill-opacity:1;" d="M 28.847656 9.671875 C 28.847656 11.601562 27.285156 13.167969 25.355469 13.167969 C 23.421875 13.167969 21.859375 11.601562 21.859375 9.671875 C 21.859375 7.742188 23.425781 6.179688 25.355469 6.179688 C 27.285156 6.179688 28.847656 7.742188 28.847656 9.671875 Z M 28.847656 9.671875 "/>
<path style=" stroke:none;fill-rule:nonzero;fill:rgb(88.627452%,88.627452%,78.039217%);fill-opacity:1;" d="M 34.320312 13.351562 C 34.320312 14.359375 33.503906 15.175781 32.496094 15.175781 C 31.488281 15.175781 30.671875 14.359375 30.671875 13.351562 C 30.671875 12.34375 31.488281 11.527344 32.496094 11.527344 C 33.503906 11.527344 34.320312 12.34375 34.320312 13.351562 Z M 34.320312 13.351562 "/>
<path style=" stroke:none;fill-rule:nonzero;fill:rgb(88.627452%,88.627452%,78.039217%);fill-opacity:1;" d="M 22.648438 4.140625 C 22.648438 5.097656 21.875 5.875 20.917969 5.875 C 19.960938 5.875 19.183594 5.097656 19.183594 4.140625 C 19.183594 3.183594 19.960938 2.410156 20.917969 2.410156 C 21.875 2.410156 22.648438 3.183594 22.648438 4.140625 Z M 22.648438 4.140625 "/>
<path style=" stroke:none;fill-rule:nonzero;fill:rgb(34.509805%,34.901962%,35.686275%);fill-opacity:1;" d="M 19.96875 0 C 28.78125 2.078125 35.339844 10.527344 35.339844 19.972656 C 35.339844 29.421875 28.78125 37.871094 19.96875 39.949219 C 31 39.949219 39.945312 31.007812 39.945312 19.972656 C 39.945312 8.941406 31 0 19.96875 0 Z M 19.96875 0 "/>
<path style=" stroke:none;fill-rule:nonzero;fill:rgb(0%,0%,0%);fill-opacity:1;" d="M 22.113281 39.375 C 24.878906 38.34375 27.117188 36.890625 29.273438 34.722656 C 32.351562 31.632812 34.453125 27.535156 35.15625 23.257812 C 35.46875 21.375 35.398438 17.753906 35.015625 15.941406 C 33.484375 8.722656 28.761719 3.109375 22.039062 0.53125 L 20.921875 0.105469 L 21.964844 0.191406 C 26.492188 0.570312 31.320312 2.980469 34.53125 6.464844 C 39.15625 11.484375 40.886719 18.25 39.238281 24.839844 C 37.199219 32.976562 30.144531 39.003906 21.742188 39.78125 L 20.773438 39.871094 Z M 22.113281 39.375 "/>
</g>
</svg>
