<?xml version="1.0" encoding="UTF-8"?>
<svg xmlns="http://www.w3.org/2000/svg" xmlns:xlink="http://www.w3.org/1999/xlink" width="120px" height="40px" viewBox="0 0 40 40" version="1.1">
<g id="surface1">
<path style=" stroke:none;fill-rule:nonzero;fill:rgb(95.294118%,95.686275%,86.274511%);fill-opacity:1;" d="M 39.949219 19.972656 C 39.949219 8.941406 31.003906 0 19.972656 0 C 8.941406 0 0 8.941406 0 19.972656 C 0 31.007812 8.941406 39.949219 19.972656 39.949219 C 31.003906 39.949219 39.949219 31.007812 39.949219 19.972656 Z M 39.949219 19.972656 "/>
<path style=" stroke:none;fill-rule:nonzero;fill:rgb(88.627452%,88.627452%,78.039217%);fill-opacity:1;" d="M 24.660156 30.949219 C 24.660156 32.914062 23.066406 34.503906 21.101562 34.503906 C 19.140625 34.503906 17.546875 32.914062 17.546875 30.949219 C 17.546875 28.984375 19.140625 27.390625 21.101562 27.390625 C 23.066406 27.390625 24.660156 28.984375 24.660156 30.949219 Z M 24.660156 30.949219 "/>
<path style=" stroke:none;fill-rule:nonzero;fill:rgb(88.627452%,88.627452%,78.039217%);fill-opacity:1;" d="M 15.175781 23.777344 C 15.175781 24.867188 14.292969 25.75 13.199219 25.75 C 12.109375 25.75 11.226562 24.867188 11.226562 23.777344 C 11.226562 22.683594 12.109375 21.800781 13.199219 21.800781 C 14.292969 21.800781 15.175781 22.683594 15.175781 23.777344 Z M 15.175781 23.777344 "/>
<path style=" stroke:none;fill-rule:nonzero;fill:rgb(88.627452%,88.627452%,78.039217%);fill-opacity:1;" d="M 15.175781 30.308594 C 15.175781 31.214844 14.441406 31.953125 13.535156 31.953125 C 12.628906 31.953125 11.894531 31.214844 11.894531 30.308594 C 11.894531 29.402344 12.628906 28.667969 13.535156 28.667969 C 14.441406 28.667969 15.175781 29.402344 15.175781 30.308594 Z M 15.175781 30.308594 "/>
<path style=" stroke:none;fill-rule:nonzero;fill:rgb(88.627452%,88.627452%,78.039217%);fill-opacity:1;" d="M 28.851562 9.671875 C 28.851562 11.605469 27.289062 13.167969 25.359375 13.167969 C 23.425781 13.167969 21.863281 11.601562 21.863281 9.671875 C 21.863281 7.742188 23.425781 6.179688 25.359375 6.179688 C 27.289062 6.179688 28.851562 7.742188 28.851562 9.671875 Z M 28.851562 9.671875 "/>
<path style=" stroke:none;fill-rule:nonzero;fill:rgb(88.627452%,88.627452%,78.039217%);fill-opacity:1;" d="M 34.324219 13.351562 C 34.324219 14.359375 33.507812 15.175781 32.5 15.175781 C 31.492188 15.175781 30.675781 14.359375 30.675781 13.351562 C 30.675781 12.34375 31.492188 11.527344 32.5 11.527344 C 33.507812 11.527344 34.324219 12.34375 34.324219 13.351562 Z M 34.324219 13.351562 "/>
<path style=" stroke:none;fill-rule:nonzero;fill:rgb(88.627452%,88.627452%,78.039217%);fill-opacity:1;" d="M 22.652344 4.140625 C 22.652344 5.097656 21.878906 5.875 20.921875 5.875 C 19.964844 5.875 19.1875 5.097656 19.1875 4.140625 C 19.1875 3.183594 19.964844 2.410156 20.921875 2.410156 C 21.878906 2.410156 22.652344 3.183594 22.652344 4.140625 Z M 22.652344 4.140625 "/>
<path style=" stroke:none;fill-rule:nonzero;fill:rgb(34.509805%,34.901962%,35.686275%);fill-opacity:1;" d="M 19.972656 0 C 11.164062 2.078125 4.605469 10.527344 4.605469 19.972656 C 4.605469 29.421875 11.164062 37.871094 19.972656 39.949219 C 31.003906 39.949219 39.949219 31.007812 39.949219 19.972656 C 39.949219 8.941406 31.003906 0 19.972656 0 Z M 19.972656 0 "/>
<path style=" stroke:none;fill-rule:nonzero;fill:rgb(95.294118%,95.686275%,86.274511%);fill-opacity:1;" d="M 18.425781 39.410156 C 15.480469 38.410156 12.683594 36.601562 10.425781 34.226562 C 6.324219 29.917969 4.148438 23.644531 4.792969 17.980469 C 5.375 12.835938 7.535156 8.460938 11.222656 4.953125 C 13.457031 2.828125 15.917969 1.335938 18.585938 0.484375 C 19.753906 0.113281 20.03125 0.078125 21.316406 0.152344 C 28.226562 0.550781 34.601562 4.8125 37.804688 11.171875 C 38.503906 12.5625 39.28125 14.9375 39.570312 16.566406 C 39.886719 18.335938 39.886719 21.523438 39.574219 23.316406 C 38.785156 27.863281 36.371094 32.117188 32.945312 35.007812 C 29.917969 37.558594 26.609375 39.074219 22.820312 39.652344 C 20.726562 39.96875 19.957031 39.925781 18.425781 39.410156 Z M 18.425781 39.410156 "/>
<path style=" stroke:none;fill-rule:nonzero;fill:rgb(0%,0%,0%);fill-opacity:1;" d="M 18.351562 39.261719 C 15.535156 38.308594 13.027344 36.675781 10.695312 34.28125 C 6.890625 30.371094 4.816406 25.328125 4.820312 19.988281 C 4.820312 13.675781 7.65625 7.851562 12.695312 3.8125 C 14.519531 2.347656 16.292969 1.371094 18.488281 0.617188 C 20.84375 -0.191406 24.875 0.417969 28.472656 2.125 C 32.296875 3.941406 36.039062 7.675781 37.832031 11.464844 C 38.382812 12.625 39.117188 14.820312 39.441406 16.269531 C 39.761719 17.695312 39.714844 22.519531 39.367188 24.011719 C 38.453125 27.921875 36.699219 31.128906 33.992188 33.847656 C 31.042969 36.804688 27.265625 38.796875 23.285156 39.488281 C 21.203125 39.851562 19.925781 39.792969 18.351562 39.261719 Z M 18.351562 39.261719 "/>
</g>
</svg>
