<svg xmlns="http://www.w3.org/2000/svg" width="96" height="96" viewBox="0 0 96 96"><rect width="96" height="96" style="fill:none"/><path d="M46.7444,9.4224a27.7408,27.7408,0,1,1,0,39.2318,27.7412,27.7412,0,0,1,0-39.2318" style="fill:#fff;fill-rule:evenodd"/><g style="opacity:0.85"><path d="M68.6526,1.4067a40.46,40.46,0,0,0,1.6716,55.057,27.7153,27.7153,0,0,0-1.6716-55.057Z" style="fill:#d6d6d6;fill-rule:evenodd"/></g><path d="M87.6138,62.304a14.9053,14.9053,0,0,0-11.06-14.3919A10.5668,10.5668,0,0,0,63.4188,33.6494,23.689,23.689,0,0,0,16.94,39.2182a19.162,19.162,0,0,0,3.5252,37.998c.1814,0,.3567-.0221.537-.027v.027H72.8685v-.0084A14.9072,14.9072,0,0,0,87.6138,62.304Z" style="fill:#c9c9c9"/></svg>